<svg width="179" height="179" viewBox="0 0 179 179" fill="none" xmlns="http://www.w3.org/2000/svg">
<circle cx="89.5233" cy="89.8017" r="88.8442" fill="white" fill-opacity="0.2"/>
<circle cx="89.5232" cy="87.4219" r="68.2196" fill="white" fill-opacity="0.16"/>
<g clip-path="url(#clip0_1_387)">
<path d="M127.891 81.5747C126.255 71.1062 117.18 63.0714 106.259 63.0714C102.151 63.0714 98.2027 64.2081 94.7786 66.3282C89.5693 57.5734 80.191 52.1255 69.7724 52.1255C53.6778 52.1255 40.5833 65.22 40.5833 81.3147C40.5833 81.4144 40.5833 81.5178 40.5869 81.6175C30.243 83.3598 22.0968 92.3781 22.0968 103.207C22.0968 115.278 32.16 125.098 44.2319 125.098H124.502C136.574 125.098 146.637 115.278 146.637 103.207C146.637 92.2857 138.359 83.2103 127.891 81.5747Z" fill="white"/>
</g>
<defs>
<clipPath id="clip0_1_387">
<rect width="124.54" height="124.54" fill="white" transform="translate(22.0968 26.3417)"/>
</clipPath>
</defs>
</svg>
