<svg xmlns="http://www.w3.org/2000/svg">
  <symbol xmlns="http://www.w3.org/2000/svg" id="icon-rocket" viewBox="0 0 33 32">
    <path d="M32.3454 0.546175C32.3132 0.351167 32.1579 0.198318 31.9599 0.166683C30.2441 -0.107381 28.5153 -0.0432551 26.8218 0.357408C26.2358 0.496001 26.4538 1.38831 27.0396 1.24978C28.5018 0.903884 29.9923 0.82801 31.4748 1.02375C31.9803 4.75253 30.6169 8.55124 27.893 11.1776C28.6447 7.31309 25.0878 3.8101 21.1618 4.55048C22.2259 3.50287 23.4351 2.63118 24.8057 2.0106C25.3533 1.76273 24.9638 0.92891 24.4162 1.17679C23.008 1.81443 21.7383 2.68484 20.6424 3.76372L15.2852 9.03824L10.215 8.40366C8.30411 8.16471 6.34987 8.82231 4.98765 10.1635L3.96085 11.1745C3.77882 11.3537 3.77888 11.6442 3.96085 11.8234L4.69407 12.5453C3.95693 13.3723 3.9885 14.636 4.78984 15.425C5.20666 15.8354 5.75425 16.0406 6.30177 16.0406C6.80629 16.0406 7.31056 15.8659 7.71284 15.5175L8.38068 16.175L8.06043 19.1327C8.04552 19.2706 8.09474 19.4078 8.19436 19.5059L12.7031 23.9451C12.8027 24.0431 12.9421 24.0917 13.0821 24.0769L16.0861 23.7616L16.754 24.4192C16.4108 24.8037 16.2229 25.2917 16.2229 25.8083C16.2229 26.3715 16.4455 26.9008 16.8498 27.2988C17.2537 27.6966 17.7907 27.9156 18.3617 27.9156C18.8866 27.9156 19.3823 27.7301 19.7728 27.3914L20.5058 28.1131C20.7256 28.2923 20.9453 28.2923 21.165 28.1131L22.1919 27.1022C23.554 25.761 24.2222 23.8371 23.9792 21.9557L23.3347 16.9636L28.6919 11.6891C31.6497 8.77697 33.0154 4.61143 32.3454 0.546175ZM5.4491 14.776C5.01152 14.3451 4.98094 13.6636 5.35594 13.1969L7.05115 14.866C6.57814 15.2361 5.88631 15.2065 5.4491 14.776ZM18.3618 26.9977C18.0397 26.9977 17.7369 26.8741 17.5091 26.6497C17.2808 26.4251 17.1551 26.1262 17.1551 25.8082C17.1551 25.537 17.2474 25.28 17.4159 25.0708L19.1111 26.7398C18.8986 26.9066 18.6374 26.9977 18.3618 26.9977ZM19.3971 19.5742C18.971 19.9939 19.63 20.6427 20.0563 20.2232L22.5046 17.8126L23.0545 22.0713C23.2614 23.6732 22.6925 25.3112 21.5328 26.4531L20.8355 27.1396L16.5878 22.9573C16.4882 22.8593 16.349 22.8109 16.2088 22.8255L13.2048 23.1408L12.91 22.8505L15.0915 20.7026C15.5177 20.2829 14.8585 19.634 14.4324 20.0535L12.2508 22.2015L9.96526 19.9512L19.6479 10.418C20.2773 9.79815 21.3015 9.79827 21.931 10.418C22.5492 11.0267 22.5506 12.0606 21.9309 12.6706L16.1604 18.3521C15.7343 18.7718 16.3933 19.4206 16.8196 19.0012L22.5901 13.3196C23.5697 12.3551 23.5699 10.7337 22.5902 9.7689C21.5972 8.79129 19.9815 8.79135 18.9887 9.7689L9.30594 19.3022L9.01104 19.0119L9.33129 16.0542C9.34627 15.9163 9.29705 15.7792 9.19743 15.681L4.94968 11.4988L5.64686 10.8123C6.80666 9.67051 8.4703 9.11038 10.0975 9.31408L14.4515 9.85903L11.9906 12.282C11.5645 12.7017 12.2235 13.3506 12.6497 12.9311L19.4117 6.2735C21.975 4.43312 25.7378 5.59436 26.7903 8.53228C27.4629 10.4098 26.8354 12.2156 25.4792 13.5573C23.4518 15.5629 21.4245 17.5686 19.3971 19.5742Z" fill="currentColor"/>
    <path d="M1.1605 18.0072C1.27976 18.0072 1.39909 17.9624 1.49007 17.8729L2.64932 16.7315C3.07546 16.3119 2.41632 15.663 1.99018 16.0825L0.830932 17.2238C0.55425 17.4962 0.769095 18.0072 1.1605 18.0072Z" fill="currentColor"/>
    <path d="M4.03661 16.9638L1.22038 19.7366C0.794229 20.1562 1.45331 20.8051 1.87952 20.3856L4.69575 17.6129C5.12196 17.1932 4.46282 16.5443 4.03661 16.9638Z" fill="currentColor"/>
    <path d="M15.4455 29.5054L14.3659 30.5417C13.9336 30.9566 14.5863 31.612 15.0166 31.1988L16.0963 30.1626C16.5278 29.7484 15.8769 29.0911 15.4455 29.5054Z" fill="currentColor"/>
    <path d="M15.285 27.3895C15.103 27.2103 14.8078 27.2103 14.6259 27.3895L11.8096 30.1623C11.3835 30.5819 12.0426 31.2308 12.4688 30.8113L15.285 28.0385C15.467 27.8592 15.467 27.5687 15.285 27.3895Z" fill="currentColor"/>
    <path d="M7.9812 24.1827C7.79954 24.003 7.5044 24.0026 7.32206 24.1814L0.831527 30.545C0.404384 30.9638 1.06241 31.6138 1.4893 31.1953L7.97983 24.8317C8.16224 24.6529 8.16286 24.3623 7.9812 24.1827Z" fill="currentColor"/>
    <path d="M2.09043 26.6504C2.31013 26.8296 2.52988 26.8296 2.74957 26.6504L7.76696 21.7105C8.1931 21.2909 7.53396 20.6419 7.10782 21.0615L2.09043 26.0014C1.9084 26.1807 1.9084 26.4712 2.09043 26.6504Z" fill="currentColor"/>
    <path d="M10.4638 24.3657L5.44641 29.3056C5.02026 29.7252 5.67934 30.3741 6.10555 29.9546L11.1229 25.0147C11.5491 24.5951 10.8899 23.9462 10.4638 24.3657Z" fill="currentColor"/>
  </symbol>
  <symbol xmlns="http://www.w3.org/2000/svg" id="icon-transfer" viewBox="0 0 87 84">
    <path fill-rule="evenodd" clip-rule="evenodd" d="M81.8707 40.2097C81.8707 41.4651 82.8895 42.4839 84.1449 42.4839C85.4002 42.4839 86.4191 41.4651 86.4191 40.2097V35.6613C86.4191 22.7045 75.8759 12.1613 62.9191 12.1613H43.9674V2.3065C43.9674 0.311279 41.5659 -0.713624 40.1225 0.663021L23.4451 16.5824C22.9963 17.0099 22.7416 17.6042 22.7416 18.2259C22.7416 18.8475 22.9963 19.4418 23.4451 19.8693L40.1225 35.7887C41.5598 37.1593 43.9674 36.1465 43.9674 34.1452V24.2904H65.9513C74.7297 24.2904 81.8707 31.4313 81.8707 40.2097ZM4.54839 43.2419C4.54839 41.9866 3.52956 40.9677 2.2742 40.9677C1.01885 40.9677 6.86824e-06 41.9866 6.97799e-06 43.2419L7.37562e-06 47.7903C8.50834e-06 60.7472 10.5432 71.2903 23.5 71.2903H42.4516V81.1452C42.4516 83.1404 44.8532 84.1653 46.2965 82.7886L62.9739 66.8693C63.4227 66.4417 63.6774 65.8474 63.6774 65.2258C63.6774 64.6042 63.4227 64.0099 62.9739 63.5823L46.2965 47.663C44.8592 46.2924 42.4516 47.3052 42.4516 49.3064L42.4516 59.1613H20.4678C11.6894 59.1613 4.54839 52.0203 4.54839 43.2419Z" fill="currentColor"/>
  </symbol>
  <symbol xmlns="http://www.w3.org/2000/svg" id="icon-facebook" viewBox="0 0 68 68">
    <path fill-rule="evenodd" clip-rule="evenodd" d="M34 68C52.7777 68 68 52.7777 68 34C68 15.2223 52.7777 0 34 0C15.2223 0 0 15.2223 0 34C0 52.7777 15.2223 68 34 68ZM36.5025 37.1732V54.0909H29.6935V37.1732H24V30.5782H29.6935V25.715C29.6935 20.0729 33.1401 17 38.1744 17C40.5853 17 42.6567 17.1798 43.2602 17.2582V23.1571L39.7708 23.1585C37.0304 23.1585 36.5025 24.4594 36.5025 26.3682V30.5782H43.0304L42.1788 37.1732H36.5025Z" fill="currentColor"/>
  </symbol>
  <symbol xmlns="http://www.w3.org/2000/svg" id="icon-line" viewBox="0 0 68 68">
    <path fill-rule="evenodd" clip-rule="evenodd" d="M34 68C52.7777 68 68 52.7777 68 34C68 15.2223 52.7777 0 34 0C15.2223 0 0 15.2223 0 34C0 52.7777 15.2223 68 34 68ZM15 30.9418C15 22.717 23.335 16 33.5223 16C43.7559 16 52.0446 22.6713 52.0909 30.9418C52.0909 34.2317 50.7943 37.2018 48.1549 40.0805C44.2652 44.5128 35.5598 49.9503 33.5686 50.7728C31.5775 51.5953 31.8553 50.2245 31.9479 49.7676L32.1794 48.214C32.272 47.757 32.3184 47.0259 32.1331 46.569C31.9479 46.0664 31.1144 45.7922 30.5124 45.6551C21.5754 44.4671 15 38.2985 15 30.9418ZM22.5478 35.831H26.2523C26.808 35.831 27.2247 35.3741 27.2247 34.8714C27.2247 34.3688 26.808 33.9119 26.2523 33.9119H23.5203V27.5605C23.5203 27.0578 23.1035 26.6009 22.5478 26.6009C22.0385 26.6009 21.5754 27.0122 21.5754 27.5605V34.8714C21.5754 35.3741 22.0385 35.831 22.5478 35.831ZM29.1233 35.7853C29.6789 35.7853 30.0957 35.3741 30.0957 34.8258V27.5148C30.0957 27.0122 29.6789 26.5552 29.1233 26.5552C28.5676 26.5552 28.1508 26.9665 28.1508 27.5148V34.8258C28.1508 35.3284 28.5676 35.7853 29.1233 35.7853ZM38.2918 35.7396C38.6622 35.6025 38.9401 35.237 38.9401 34.8258V27.6062C38.9401 27.1035 38.5233 26.6466 37.9677 26.6466C37.412 26.6466 36.9952 27.0578 36.9952 27.6062V32.1298L33.1982 27.0122C33.0129 26.738 32.7351 26.6009 32.411 26.6009C32.3647 26.6009 32.2257 26.6009 32.1331 26.6466C31.7627 26.7837 31.4848 27.1492 31.4848 27.5605V34.8714C31.4848 35.3741 31.9016 35.831 32.4573 35.831C33.0129 35.831 33.4297 35.4198 33.4297 34.8714V30.3478L37.1805 35.4198C37.3657 35.6482 37.6435 35.7853 37.9677 35.7853C38.1066 35.7853 38.1992 35.7853 38.2918 35.7396ZM45.8859 31.1703C45.8859 30.6676 45.4692 30.2107 44.9135 30.2107H42.1815V28.4743H44.8672C45.4229 28.4743 45.8396 28.0631 45.8396 27.5148C45.8396 27.0122 45.4229 26.5552 44.8672 26.5552H41.1628C40.6071 26.5552 40.1903 26.9665 40.1903 27.5148V34.8258C40.1903 35.3284 40.6071 35.7853 41.1628 35.7853H44.8672C45.4229 35.7853 45.8396 35.3741 45.8396 34.8258C45.8396 34.3231 45.4229 33.8662 44.8672 33.8662H42.1815V32.1298H44.9135C45.4692 32.1298 45.8859 31.7186 45.8859 31.1703Z" fill="currentColor"/>
  </symbol>

  <symbol xmlns="http://www.w3.org/2000/svg" id="icon-arrow-right" viewBox="0 0 448 512">
    <path fill="currentColor" d="M438.6 278.6c12.5-12.5 12.5-32.8 0-45.3l-160-160c-12.5-12.5-32.8-12.5-45.3 0s-12.5 32.8 0 45.3L338.8 224 32 224c-17.7 0-32 14.3-32 32s14.3 32 32 32l306.7 0L233.4 393.4c-12.5 12.5-12.5 32.8 0 45.3s32.8 12.5 45.3 0l160-160z"/>
  </symbol>
  <symbol xmlns="http://www.w3.org/2000/svg" id="icon-arrow-down" viewBox="0 0 384 512">
    <path fill="currentColor" d="M169.4 470.6c12.5 12.5 32.8 12.5 45.3 0l160-160c12.5-12.5 12.5-32.8 0-45.3s-32.8-12.5-45.3 0L224 370.8 224 64c0-17.7-14.3-32-32-32s-32 14.3-32 32l0 306.7L54.6 265.4c-12.5-12.5-32.8-12.5-45.3 0s-12.5 32.8 0 45.3l160 160z"/>
  </symbol>
  <symbol xmlns="http://www.w3.org/2000/svg" id="icon-angle-down" viewBox="0 0 448 512">
    <path fill="currentColor" d="M201.4 374.6c12.5 12.5 32.8 12.5 45.3 0l160-160c12.5-12.5 12.5-32.8 0-45.3s-32.8-12.5-45.3 0L224 306.7 86.6 169.4c-12.5-12.5-32.8-12.5-45.3 0s-12.5 32.8 0 45.3l160 160z"/>
  </symbol>
  <symbol xmlns="http://www.w3.org/2000/svg" id="icon-cart-shopping" viewBox="0 0 576 512">
    <path fill="currentColor" d="M0 24C0 10.7 10.7 0 24 0H69.5c22 0 41.5 12.8 50.6 32h411c26.3 0 45.5 25 38.6 50.4l-41 152.3c-8.5 31.4-37 53.3-69.5 53.3H170.7l5.4 28.5c2.2 11.3 12.1 19.5 23.6 19.5H488c13.3 0 24 10.7 24 24s-10.7 24-24 24H199.7c-34.6 0-64.3-24.6-70.7-58.5L77.4 54.5c-.7-3.8-4-6.5-7.9-6.5H24C10.7 48 0 37.3 0 24zM128 464a48 48 0 1 1 96 0 48 48 0 1 1 -96 0zm336-48a48 48 0 1 1 0 96 48 48 0 1 1 0-96z"/>
  </symbol>
  <symbol xmlns="http://www.w3.org/2000/svg" id="icon-circle-check-regular" viewBox="0 0 512 512">
    <path fill="currentColor" d="M256,464c-114.7,0-208-93.3-208-208S141.3,48,256,48s208,93.3,208,208S370.7,464,256,464z M256,80c-97,0-176,79-176,176s79,176,176,176s176-79,176-176S353,80,256,80z M217.9,352c4.6-0.1,9-2.2,12-5.7l134.4-160c5.7-6.8,4.8-16.9-2-22.5c-6.8-5.7-16.9-4.8-22.5,2L217.2,311.6l-45.3-50.3c-5.9-6.6-16-7.1-22.6-1.2c-6.6,5.9-7.1,16-1.2,22.6l57.6,64c3,3.4,7.4,5.3,11.9,5.3C217.7,352,217.8,352,217.9,352z"/>
  </symbol>
  <symbol xmlns="http://www.w3.org/2000/svg" id="icon-arrow-up-right-from-square-solid" viewBox="0 0 512 512">
    <path fill="currentColor" d="M320 0c-17.7 0-32 14.3-32 32s14.3 32 32 32h82.7L201.4 265.4c-12.5 12.5-12.5 32.8 0 45.3s32.8 12.5 45.3 0L448 109.3V192c0 17.7 14.3 32 32 32s32-14.3 32-32V32c0-17.7-14.3-32-32-32H320zM80 32C35.8 32 0 67.8 0 112V432c0 44.2 35.8 80 80 80H400c44.2 0 80-35.8 80-80V320c0-17.7-14.3-32-32-32s-32 14.3-32 32V432c0 8.8-7.2 16-16 16H80c-8.8 0-16-7.2-16-16V112c0-8.8 7.2-16 16-16H192c17.7 0 32-14.3 32-32s-14.3-32-32-32H80z"/>
  </symbol>
</svg>